<?xml version="1.0" encoding="UTF-8"?>
<svg width="22px" height="22px" viewBox="0 0 22 22" version="1.1" xmlns="http://www.w3.org/2000/svg" xmlns:xlink="http://www.w3.org/1999/xlink">
    <!-- Generator: Sketch 53.2 (72643) - https://sketchapp.com -->
    <title>Facebook__x28_alt_x29_</title>
    <desc>Created with Sketch.</desc>
    <g id="Symbols" stroke="none" stroke-width="1" fill="none" fill-rule="evenodd">
        <g id="footer" transform="translate(-36.000000, -176.000000)" fill="#FFFFFF">
            <g id="social-row">
                <g transform="translate(36.000000, 175.000000)">
                    <path d="M22,4.66691111 C22,2.7402 20.2605333,1 18.3333333,1 L3.66666667,1 C1.73946667,1 0,2.7402 0,4.66691111 L0,19.3330889 C0,21.2598 1.73946667,23 3.66691111,23 L11,23 L11,14.6888889 L8.31111111,14.6888889 L8.31111111,11.0222222 L11,11.0222222 L11,9.59368889 C11,7.12993333 12.8499556,4.91111111 15.125,4.91111111 L18.0888889,4.91111111 L18.0888889,8.57777778 L15.125,8.57777778 C14.8006222,8.57777778 14.4222222,8.97157778 14.4222222,9.56142222 L14.4222222,11.0222222 L18.0888889,11.0222222 L18.0888889,14.6888889 L14.4222222,14.6888889 L14.4222222,23 L18.3333333,23 C20.2605333,23 22,21.2598 22,19.3330889 L22,4.66691111 Z" id="Facebook__x28_alt_x29_"></path>
                </g>
            </g>
        </g>
    </g>
</svg>