<?xml version="1.0" encoding="UTF-8"?>
<svg width="23px" height="23px" viewBox="0 0 23 23" version="1.1" xmlns="http://www.w3.org/2000/svg" xmlns:xlink="http://www.w3.org/1999/xlink">
    <!-- Generator: Sketch 53.2 (72643) - https://sketchapp.com -->
    <title>INSTAGRAM</title>
    <desc>Created with Sketch.</desc>
    <g id="Symbols" stroke="none" stroke-width="1" fill="none" fill-rule="evenodd">
        <g id="footer" transform="translate(-129.000000, -175.000000)" fill="#FFFFFF">
            <g id="social-row">
                <g transform="translate(36.000000, 175.000000)">
                    <g id="INSTAGRAM" transform="translate(93.000000, 0.000000)">
                        <path d="M16.5608118,-8.8817842e-15 L6.31201176,-8.8817842e-15 C2.83157059,-8.8817842e-15 1.04805054e-13,2.83170588 1.04805054e-13,6.31214706 L1.04805054e-13,16.5609471 C1.04805054e-13,20.0415235 2.83157059,22.8730941 6.31201176,22.8730941 L16.5608118,22.8730941 C20.0415235,22.8730941 22.8730941,20.0413882 22.8730941,16.5609471 L22.8730941,6.31214706 C22.8732294,2.83170588 20.0415235,-8.8817842e-15 16.5608118,-8.8817842e-15 Z M20.8438176,16.5609471 C20.8438176,18.9225059 18.9225059,20.8436824 16.5609471,20.8436824 L6.31201176,20.8436824 C3.95058824,20.8438176 2.02941176,18.9225059 2.02941176,16.5609471 L2.02941176,6.31214706 C2.02941176,3.95072353 3.95058824,2.02941176 6.31201176,2.02941176 L16.5608118,2.02941176 C18.9223706,2.02941176 20.8436824,3.95072353 20.8436824,6.31214706 L20.8436824,16.5609471 L20.8438176,16.5609471 Z" id="Shape"></path>
                        <path d="M11.8938176,5 C8.64391765,5 6,7.64391765 6,10.8938176 C6,14.1435824 8.64391765,16.7873647 11.8938176,16.7873647 C15.1437176,16.7873647 17.7876353,14.1435824 17.7876353,10.8938176 C17.7876353,7.64391765 15.1437176,5 11.8938176,5 Z M11.8938176,14.7578176 C9.76307059,14.7578176 8.02941176,13.0244294 8.02941176,10.8936824 C8.02941176,8.7628 9.76293529,7.02927647 11.8938176,7.02927647 C14.0247,7.02927647 15.7582235,8.7628 15.7582235,10.8936824 C15.7582235,13.0244294 14.0245647,14.7578176 11.8938176,14.7578176 Z" id="Shape"></path>
                        <path d="M17.4882353,4 C17.0972353,4 16.7131353,4.15829412 16.437,4.43564706 C16.1595118,4.71164706 16,5.09588235 16,5.48823529 C16,5.87937059 16.1596471,6.26347059 16.437,6.54082353 C16.713,6.81682353 17.0972353,6.97647059 17.4882353,6.97647059 C17.8805882,6.97647059 18.2634706,6.81682353 18.5408235,6.54082353 C18.8181765,6.26347059 18.9764706,5.87923529 18.9764706,5.48823529 C18.9764706,5.09588235 18.8181765,4.71164706 18.5408235,4.43564706 C18.2648235,4.15829412 17.8805882,4 17.4882353,4 Z" id="Shape"></path>
                    </g>
                </g>
            </g>
        </g>
    </g>
</svg>