<?xml version="1.0" encoding="UTF-8"?>
<svg width="96px" height="43px" viewBox="0 0 96 43" version="1.1" xmlns="http://www.w3.org/2000/svg" xmlns:xlink="http://www.w3.org/1999/xlink">
    <!-- Generator: Sketch 53.2 (72643) - https://sketchapp.com -->
    <title>logo</title>
    <desc>Created with Sketch.</desc>
    <g id="Website/Splash" stroke="none" stroke-width="1" fill="none" fill-rule="evenodd">
        <g id="Desktop-HD" transform="translate(-94.000000, -17.000000)" fill="#2DBBA9">
            <g id="logo" transform="translate(94.000000, 17.000000)">
                <g id="the-good-host-logo">
                    <polygon id="Path" fill-rule="nonzero" points="6 0 0 0 0 20 6 14.1150195"></polygon>
                    <polygon id="Path" fill-rule="nonzero" points="31 0 31 14.1150195 37 20 37 0"></polygon>
                    <polygon id="Path" fill-rule="nonzero" points="30.5671917 17.9133453 18.5 7 6.43280835 17.9133453 3.3147883 20.7327795 0 23.7288884 0 42 6.43280835 42 6.43280835 26.4563046 18.5 15.5429593 30.5671917 26.4563046 30.5671917 42 37 42 37 23.7288884 33.6889957 20.7327795"></polygon>
                    <path d="M51.0613166,27.9999127 C47.4695469,27.9999127 45.0002052,25.4676784 45.0002052,22.0358346 L45.0002052,22.0025157 C44.9868867,20.3926504 45.6222984,18.8459986 46.7615195,17.7153111 C47.9007406,16.5846237 49.4466248,15.9663191 51.0465963,16.0014167 C53.1221681,16.0014167 54.358679,16.5641354 55.5767894,17.5933184 L53.9796295,19.5332171 C53.1678711,18.7551111 52.0829587,18.331861 50.9619542,18.3559503 C49.1219082,18.3559503 47.6498714,19.9959792 47.6498714,21.9691969 L47.6498714,22.0025157 C47.6498714,24.1238172 49.0998276,25.6824 51.1422787,25.6824 C51.9923298,25.7074896 52.8288428,25.4640976 53.5343384,24.9864058 L53.5343384,23.3278664 L50.9913949,23.3278664 L50.9913949,21.132523 L56,21.132523 L56,26.1636726 C54.6286284,27.3563368 52.8740969,28.0086849 51.0613166,27.9999127 L51.0613166,27.9999127 Z" id="Path" fill-rule="nonzero"></path>
                    <path d="M63.4902349,28 C59.7319088,28 57,25.3341561 57,22.0351743 L57,22.0018513 C57,18.7028695 59.7319088,16 63.517554,16 C67.3031991,16 69.9999834,18.6695464 69.9999834,21.9685282 L69.9999834,22.0018513 C70.0077888,25.3008331 67.2641718,28 63.4902349,28 Z M67.1939227,22.0018513 C67.2288006,21.0479454 66.8544241,20.1214 66.1563813,19.434037 C65.4583384,18.746674 64.4963118,18.3572628 63.4902349,18.3548288 C61.3242214,18.3548288 59.8216716,19.980253 59.8216716,21.9685282 L59.8216716,22.0018513 C59.7867937,22.9557571 60.1611702,23.8823025 60.859213,24.5696656 C61.5572559,25.2570286 62.5192825,25.6464397 63.5253594,25.6488738 C65.6913729,25.6488738 67.1939227,24.0234496 67.1939227,22.0351743 L67.1939227,22.0018513 Z" id="Shape" fill-rule="nonzero"></path>
                    <path d="M77.4824377,28 C73.7084959,28 71,25.3341561 71,22.0351743 L71,22.0018513 C71,18.7028695 73.7319123,16 77.5175623,16 C81.3032122,16 84,18.6695464 84,21.9685282 L84,22.0018513 C84,25.3008331 81.2563795,28 77.4824377,28 Z M81.1861303,22.0018513 C81.2210082,21.0479454 80.8466313,20.1214 80.1485875,19.434037 C79.4505437,18.746674 78.4885159,18.3572628 77.4824377,18.3548288 C75.3164215,18.3548288 73.8138697,19.980253 73.8138697,21.9685282 L73.8138697,22.0018513 C73.7789481,22.9570396 74.1543811,23.8847342 74.8541261,24.5723233 C75.5538711,25.2599125 76.5179339,25.6484442 77.5253678,25.6488738 C79.691384,25.6488738 81.1939358,24.0234496 81.1939358,22.0351743 L81.1861303,22.0018513 Z" id="Shape" fill-rule="nonzero"></path>
                    <path d="M89.6560443,28 L85,28 L85,16 L89.6560443,16 C93.4090752,16 96,18.5900383 96,21.9693487 L96,22.0038314 C96,25.3831418 93.4090752,28 89.6560443,28 Z M93.2528576,21.9961686 C93.2528576,19.8697318 91.8049879,18.3754789 89.6560443,18.3754789 L87.6252165,18.3754789 L87.6252165,25.6245211 L89.6560443,25.6245211 C91.8049879,25.6245211 93.2528576,24.164751 93.2528576,22.0383142 L93.2528576,21.9961686 Z" id="Shape" fill-rule="nonzero"></path>
                    <polygon id="Path" fill-rule="nonzero" points="52.6574877 42.996171 52.6574877 38.1793235 48.3425123 38.1793235 48.3425123 42.996171 46 42.996171 46 31 48.3425123 31 48.3425123 35.747926 52.6574877 35.747926 52.6574877 31 55 31 55 43"></polygon>
                    <path d="M63.4824377,43 C59.7084959,43 57,40.3304536 57,37.0351743 L57,37.0018513 C57,33.7028695 59.7319123,31 63.5175623,31 C67.3032122,31 70,33.6695464 70,36.9685282 L70,37.0018513 C70,40.3008331 67.248574,43 63.4824377,43 Z M67.1861303,37.0018513 C67.2210082,36.0479454 66.8466313,35.1214 66.1485875,34.434037 C65.4505437,33.746674 64.4885159,33.3572628 63.4824377,33.3548288 C61.3164215,33.3548288 59.8138697,34.9765504 59.8138697,36.9685282 L59.8138697,37.0018513 C59.7789918,37.9557571 60.1533687,38.8823025 60.8514125,39.5696656 C61.5494563,40.2570286 62.5114841,40.6464397 63.5175623,40.6488738 C65.6835785,40.6488738 67.1861303,39.0234496 67.1861303,37.0351743 L67.1861303,37.0018513 Z" id="Shape" fill-rule="nonzero"></path>
                    <path d="M75.8113435,42.999922 C74.0396588,43.0082734 72.3269801,42.3454399 71,41.1378567 L72.4734513,39.320481 C73.4943685,40.1882034 74.5659694,40.7356506 75.8620274,40.7356506 C76.8829445,40.7356506 77.498391,40.3222721 77.498391,39.6184114 L77.498391,39.5848942 C77.498391,38.9331714 77.1074014,38.6017237 75.2139984,38.095242 C72.9259855,37.4919328 71.4525342,36.8439341 71.4525342,34.5275248 L71.4525342,34.5200766 C71.4525342,32.4010462 73.1069992,31.0007731 75.4348351,31.0007731 C76.9653394,30.9769614 78.4558549,31.50386 79.6488335,32.4904254 L78.3527755,34.4269733 C77.3463395,33.7082161 76.3580048,33.2762169 75.4022526,33.2762169 C74.4465004,33.2762169 73.9541432,33.7268367 73.9541432,34.2929046 L73.9541432,34.3264218 C73.9541432,35.0935927 74.4392599,35.3431094 76.4014481,35.8607636 C78.7039421,36.4752451 80,37.3280711 80,39.3614464 L80,39.3949636 C79.9637973,41.7002004 78.2586484,42.999922 75.8113435,42.999922 Z" id="Path" fill-rule="nonzero"></path>
                    <polygon id="Path" fill-rule="nonzero" points="87.6873077 33.4275686 87.6873077 43 85.2988462 43 85.2988462 33.4275686 82 33.4275686 82 31 91 31 91 33.4313976"></polygon>
                    <polygon id="Path" fill-rule="nonzero" points="50.6873077 2.43367347 50.6873077 12 48.2988462 12 48.2988462 2.43367347 45 2.43367347 45 0 54 0 54 2.43367347"></polygon>
                    <polygon id="Path" fill-rule="nonzero" points="62.6566038 12 62.6566038 7.20229738 58.34 7.20229738 58.34 12 56 12 56 0 58.34 0 58.34 4.75175495 62.6566038 4.75175495 62.6566038 0 65 0 65 12"></polygon>
                    <polygon id="Path" fill-rule="nonzero" points="67 12 67 0 75.9169811 0 75.9169811 2.35098915 69.5849057 2.35098915 69.5849057 4.7862157 75.1584906 4.7862157 75.1584906 7.13337588 69.5849057 7.13337588 69.5849057 9.65283982 76 9.65283982 76 12"></polygon>
                </g>
            </g>
        </g>
    </g>
</svg>