<?xml version="1.0" encoding="UTF-8"?>
<svg width="24px" height="20px" viewBox="0 0 24 20" version="1.1" xmlns="http://www.w3.org/2000/svg" xmlns:xlink="http://www.w3.org/1999/xlink">
    <!-- Generator: Sketch 53.2 (72643) - https://sketchapp.com -->
    <title>twitter</title>
    <desc>Created with Sketch.</desc>
    <g id="Symbols" stroke="none" stroke-width="1" fill="none" fill-rule="evenodd">
        <g id="footer" transform="translate(-84.000000, -177.000000)" fill="#FFFFFF">
            <g id="social-row">
                <g transform="translate(36.000000, 175.000000)">
                    <path d="M72,4.36631471 C71.1166652,4.76786846 70.1688598,5.04019762 69.173015,5.16177817 C70.1898402,4.53709876 70.9681944,3.54626961 71.337097,2.3692476 C70.3832915,2.94774088 69.3304662,3.36780127 68.2086605,3.59551335 C67.3103453,2.61236847 66.0325785,2 64.6153213,2 C61.8963364,2 59.6917446,4.26171198 59.6917446,7.04961589 C59.6917446,7.44501417 59.7352349,7.83119937 59.819235,8.20048721 C55.7280126,7.98967249 52.1002028,5.97876565 49.6721596,2.92311901 C49.2477275,3.66780992 49.0062762,4.53552972 49.0062762,5.46178682 C49.0062762,7.21424448 49.8761207,8.76051408 51.1958876,9.66516669 C50.3890235,9.6374872 49.6301595,9.40977512 48.9658055,9.0312742 L48.9658055,9.09435769 C48.9658055,11.5406935 50.6634945,13.5823777 52.914557,14.0470551 C52.502125,14.1609112 52.0672223,14.2239947 51.6173,14.2239947 C51.2993779,14.2239947 50.9919265,14.1916885 50.690475,14.1301338 C51.3173388,16.1379831 53.135028,17.5980761 55.2886394,17.6381068 C53.6044405,18.9920683 51.4808292,19.7967448 49.1742764,19.7967448 C48.776864,19.7967448 48.3854124,19.772123 48,19.7275059 C50.1791016,21.1630173 52.7661254,22 55.5466006,22 C64.6033997,22 69.553996,14.3040157 69.553996,7.62967821 L69.5374862,6.9757905 C70.5047819,6.26799217 71.3416068,5.37870812 72,4.36631471 Z" id="twitter"></path>
                </g>
            </g>
        </g>
    </g>
</svg>